TITLE ""
FILE "1Q_j_2184-2200.mp3" MP3
  TRACK 01 AUDIO
    TITLE "1Q_j_2184-2200_001"
    INDEX 01 00:00:00
  TRACK 02 AUDIO
    TITLE "1Q_j_2184-2200_002"
    INDEX 01 00:00:08
  TRACK 03 AUDIO
    TITLE "1Q_j_2184-2200_003"
    INDEX 01 00:01:72
  TRACK 04 AUDIO
    TITLE "1Q_j_2184-2200_004"
    INDEX 01 00:02:09
  TRACK 05 AUDIO
    TITLE "1Q_j_2184-2200_005"
    INDEX 01 00:04:49
  TRACK 06 AUDIO
    TITLE "1Q_j_2184-2200_006"
    INDEX 01 00:04:59
  TRACK 07 AUDIO
    TITLE "1Q_j_2184-2200_007"
    INDEX 01 00:10:69
  TRACK 08 AUDIO
    TITLE "1Q_j_2184-2200_008"
    INDEX 01 00:11:43
  TRACK 09 AUDIO
    TITLE "1Q_j_2184-2200_009"
    INDEX 01 00:12:68
  TRACK 10 AUDIO
    TITLE "1Q_j_2184-2200_010"
    INDEX 01 00:13:01
  TRACK 11 AUDIO
    TITLE "1Q_j_2184-2200_011"
    INDEX 01 00:15:14
  TRACK 12 AUDIO
    TITLE "1Q_j_2184-2200_012"
    INDEX 01 00:15:24
  TRACK 13 AUDIO
    TITLE "1Q_j_2184-2200_013"
    INDEX 01 00:21:40
  TRACK 14 AUDIO
    TITLE "1Q_j_2184-2200_014"
    INDEX 01 00:22:12
  TRACK 15 AUDIO
    TITLE "1Q_j_2184-2200_015"
    INDEX 01 00:23:35
  TRACK 16 AUDIO
    TITLE "1Q_j_2184-2200_016"
    INDEX 01 00:23:47
  TRACK 17 AUDIO
    TITLE "1Q_j_2184-2200_017"
    INDEX 01 00:25:57
  TRACK 18 AUDIO
    TITLE "1Q_j_2184-2200_018"
    INDEX 01 00:25:65
  TRACK 19 AUDIO
    TITLE "1Q_j_2184-2200_019"
    INDEX 01 00:31:07
  TRACK 20 AUDIO
    TITLE "1Q_j_2184-2200_020"
    INDEX 01 00:31:54
  TRACK 21 AUDIO
    TITLE "1Q_j_2184-2200_021"
    INDEX 01 00:32:75
  TRACK 22 AUDIO
    TITLE "1Q_j_2184-2200_022"
    INDEX 01 00:33:08
  TRACK 23 AUDIO
    TITLE "1Q_j_2184-2200_023"
    INDEX 01 00:35:26
  TRACK 24 AUDIO
    TITLE "1Q_j_2184-2200_024"
    INDEX 01 00:35:32
  TRACK 25 AUDIO
    TITLE "1Q_j_2184-2200_025"
    INDEX 01 00:40:02
  TRACK 26 AUDIO
    TITLE "1Q_j_2184-2200_026"
    INDEX 01 00:40:47
  TRACK 27 AUDIO
    TITLE "1Q_j_2184-2200_027"
    INDEX 01 00:42:30
  TRACK 28 AUDIO
    TITLE "1Q_j_2184-2200_028"
    INDEX 01 00:42:40
  TRACK 29 AUDIO
    TITLE "1Q_j_2184-2200_029"
    INDEX 01 00:44:06
  TRACK 30 AUDIO
    TITLE "1Q_j_2184-2200_030"
    INDEX 01 00:44:12
  TRACK 31 AUDIO
    TITLE "1Q_j_2184-2200_031"
    INDEX 01 00:49:46
  TRACK 32 AUDIO
    TITLE "1Q_j_2184-2200_032"
    INDEX 01 00:50:18
  TRACK 33 AUDIO
    TITLE "1Q_j_2184-2200_033"
    INDEX 01 00:51:68
  TRACK 34 AUDIO
    TITLE "1Q_j_2184-2200_034"
    INDEX 01 00:52:05
  TRACK 35 AUDIO
    TITLE "1Q_j_2184-2200_035"
    INDEX 01 00:53:67
  TRACK 36 AUDIO
    TITLE "1Q_j_2184-2200_036"
    INDEX 01 00:53:73
  TRACK 37 AUDIO
    TITLE "1Q_j_2184-2200_037"
    INDEX 01 00:58:59
  TRACK 38 AUDIO
    TITLE "1Q_j_2184-2200_038"
    INDEX 01 00:59:29
  TRACK 39 AUDIO
    TITLE "1Q_j_2184-2200_039"
    INDEX 01 01:00:56
  TRACK 40 AUDIO
    TITLE "1Q_j_2184-2200_040"
    INDEX 01 01:00:65
  TRACK 41 AUDIO
    TITLE "1Q_j_2184-2200_041"
    INDEX 01 01:02:47
  TRACK 42 AUDIO
    TITLE "1Q_j_2184-2200_042"
    INDEX 01 01:02:54
  TRACK 43 AUDIO
    TITLE "1Q_j_2184-2200_043"
    INDEX 01 01:08:16
  TRACK 44 AUDIO
    TITLE "1Q_j_2184-2200_044"
    INDEX 01 01:08:61
  TRACK 45 AUDIO
    TITLE "1Q_j_2184-2200_045"
    INDEX 01 01:10:23
  TRACK 46 AUDIO
    TITLE "1Q_j_2184-2200_046"
    INDEX 01 01:10:31
  TRACK 47 AUDIO
    TITLE "1Q_j_2184-2200_047"
    INDEX 01 01:13:33
  TRACK 48 AUDIO
    TITLE "1Q_j_2184-2200_048"
    INDEX 01 01:13:43
  TRACK 49 AUDIO
    TITLE "1Q_j_2184-2200_049"
    INDEX 01 01:20:07
  TRACK 50 AUDIO
    TITLE "1Q_j_2184-2200_050"
    INDEX 01 01:20:54
  TRACK 51 AUDIO
    TITLE "1Q_j_2184-2200_051"
    INDEX 01 01:21:75
  TRACK 52 AUDIO
    TITLE "1Q_j_2184-2200_052"
    INDEX 01 01:22:10
  TRACK 53 AUDIO
    TITLE "1Q_j_2184-2200_053"
    INDEX 01 01:24:23
  TRACK 54 AUDIO
    TITLE "1Q_j_2184-2200_054"
    INDEX 01 01:24:31
  TRACK 55 AUDIO
    TITLE "1Q_j_2184-2200_055"
    INDEX 01 01:28:72
  TRACK 56 AUDIO
    TITLE "1Q_j_2184-2200_056"
    INDEX 01 01:29:45
  TRACK 57 AUDIO
    TITLE "1Q_j_2184-2200_057"
    INDEX 01 01:30:59
  TRACK 58 AUDIO
    TITLE "1Q_j_2184-2200_058"
    INDEX 01 01:30:68
  TRACK 59 AUDIO
    TITLE "1Q_j_2184-2200_059"
    INDEX 01 01:32:09
  TRACK 60 AUDIO
    TITLE "1Q_j_2184-2200_060"
    INDEX 01 01:32:18
  TRACK 61 AUDIO
    TITLE "1Q_j_2184-2200_061"
    INDEX 01 01:36:12
  TRACK 62 AUDIO
    TITLE "1Q_j_2184-2200_062"
    INDEX 01 01:36:59
  TRACK 63 AUDIO
    TITLE "1Q_j_2184-2200_063"
    INDEX 01 01:38:03
  TRACK 64 AUDIO
    TITLE "1Q_j_2184-2200_064"
    INDEX 01 01:38:13
  TRACK 65 AUDIO
    TITLE "1Q_j_2184-2200_065"
    INDEX 01 01:42:01
  TRACK 66 AUDIO
    TITLE "1Q_j_2184-2200_066"
    INDEX 01 01:42:09
  TRACK 67 AUDIO
    TITLE "1Q_j_2184-2200_067"
    INDEX 01 01:48:19
  TRACK 68 AUDIO
    TITLE "1Q_j_2184-2200_068"
    INDEX 01 01:48:66
  TRACK 69 AUDIO
    TITLE "1Q_j_2184-2200_069"
    INDEX 01 01:50:20
  TRACK 70 AUDIO
    TITLE "1Q_j_2184-2200_070"
    INDEX 01 01:50:30
  TRACK 71 AUDIO
    TITLE "1Q_j_2184-2200_071"
    INDEX 01 01:52:45
  TRACK 72 AUDIO
    TITLE "1Q_j_2184-2200_072"
    INDEX 01 01:52:50
  TRACK 73 AUDIO
    TITLE "1Q_j_2184-2200_073"
    INDEX 01 01:58:31
  TRACK 74 AUDIO
    TITLE "1Q_j_2184-2200_074"
    INDEX 01 01:59:04
  TRACK 75 AUDIO
    TITLE "1Q_j_2184-2200_075"
    INDEX 01 02:00:21
  TRACK 76 AUDIO
    TITLE "1Q_j_2184-2200_076"
    INDEX 01 02:00:32
  TRACK 77 AUDIO
    TITLE "1Q_j_2184-2200_077"
    INDEX 01 02:03:05
  TRACK 78 AUDIO
    TITLE "1Q_j_2184-2200_078"
    INDEX 01 02:03:13
  TRACK 79 AUDIO
    TITLE "1Q_j_2184-2200_079"
    INDEX 01 02:07:64
  TRACK 80 AUDIO
    TITLE "1Q_j_2184-2200_080"
    INDEX 01 02:08:36
  TRACK 81 AUDIO
    TITLE "1Q_j_2184-2200_081"
    INDEX 01 02:09:61
  TRACK 82 AUDIO
    TITLE "1Q_j_2184-2200_082"
    INDEX 01 02:09:70
  TRACK 83 AUDIO
    TITLE "1Q_j_2184-2200_083"
    INDEX 01 02:11:22
  TRACK 84 AUDIO
    TITLE "1Q_j_2184-2200_084"
    INDEX 01 02:11:30
  TRACK 85 AUDIO
    TITLE "1Q_j_2184-2200_085"
    INDEX 01 02:17:05
  TRACK 86 AUDIO
    TITLE "1Q_j_2184-2200_086"
    INDEX 01 02:17:52
  TRACK 87 AUDIO
    TITLE "1Q_j_2184-2200_087"
    INDEX 01 02:19:04
  TRACK 88 AUDIO
    TITLE "1Q_j_2184-2200_088"
    INDEX 01 02:19:12
  TRACK 89 AUDIO
    TITLE "1Q_j_2184-2200_089"
    INDEX 01 02:21:05
  TRACK 90 AUDIO
    TITLE "1Q_j_2184-2200_090"
    INDEX 01 02:21:11
  TRACK 91 AUDIO
    TITLE "1Q_j_2184-2200_091"
    INDEX 01 02:25:48
  TRACK 92 AUDIO
    TITLE "1Q_j_2184-2200_092"
    INDEX 01 02:26:18
  TRACK 93 AUDIO
    TITLE "1Q_j_2184-2200_093"
    INDEX 01 02:27:49
  TRACK 94 AUDIO
    TITLE "1Q_j_2184-2200_094"
    INDEX 01 02:27:59
  TRACK 95 AUDIO
    TITLE "1Q_j_2184-2200_095"
    INDEX 01 02:29:75
  TRACK 96 AUDIO
    TITLE "1Q_j_2184-2200_096"
    INDEX 01 02:30:06
  TRACK 97 AUDIO
    TITLE "1Q_j_2184-2200_097"
    INDEX 01 02:34:35
  TRACK 98 AUDIO
    TITLE "1Q_j_2184-2200_098"
    INDEX 01 02:35:07
  TRACK 99 AUDIO
    TITLE "1Q_j_2184-2200_099"
    INDEX 01 02:36:28
  TRACK 100 AUDIO
    TITLE "1Q_j_2184-2200_100"
    INDEX 01 02:36:38
  TRACK 101 AUDIO
    TITLE "1Q_j_2184-2200_101"
    INDEX 01 02:38:15
  TRACK 102 AUDIO
    TITLE "1Q_j_2184-2200_102"
    INDEX 01 02:38:25
  TRACK 103 AUDIO
    TITLE "1Q_j_2184-2200_103"
    INDEX 01 02:42:39
